<?xml version="1.0" standalone="no"?>
<!DOCTYPE svg PUBLIC "-//W3C//DTD SVG 20010904//EN"
 "http://www.w3.org/TR/2001/REC-SVG-20010904/DTD/svg10.dtd">
<svg version="1.0" xmlns="http://www.w3.org/2000/svg"
 width="76.000000pt" height="76.000000pt" viewBox="0 0 76.000000 76.000000"
 preserveAspectRatio="xMidYMid meet">
<metadata>
Created by potrace 1.11, written by Peter Selinger 2001-2013
</metadata>
<g transform="translate(0.000000,76.000000) scale(0.100000,-0.100000)"
fill="#000000" stroke="none">
<path d="M289 727 c-319 -91 -359 -523 -61 -669 60 -30 75 -33 152 -33 70 0
95 5 140 26 69 33 112 69 151 128 l31 46 -31 -35 c-17 -19 -31 -38 -31 -42 0
-14 -98 -77 -145 -93 -64 -21 -170 -21 -235 0 -72 24 -150 98 -186 177 -61
136 -39 284 58 380 106 107 242 137 381 86 37 -14 67 -24 67 -21 0 2 -25 15
-55 29 -66 30 -170 40 -236 21z"/>
<path d="M368 688 c0 -13 0 -33 1 -46 2 -24 -27 -71 -44 -72 -12 0 -43 -34
-62 -65 -69 -117 -68 -233 5 -304 41 -42 48 -72 21 -96 -10 -10 -16 -22 -13
-26 7 -12 201 -12 208 0 3 4 -3 16 -13 25 -25 23 -16 62 22 96 36 32 30 46
-23 55 -22 4 -40 12 -40 18 0 7 -4 18 -9 26 -8 12 -19 8 -65 -22 -31 -21 -56
-35 -56 -33 0 2 18 26 40 52 40 48 40 49 18 56 -13 3 -39 7 -58 8 l-35 2 40 9
c60 13 125 39 125 50 0 5 -3 9 -7 9 -5 0 -24 14 -43 31 l-35 30 54 -26 53 -26
24 22 c29 27 30 43 4 69 -11 11 -20 25 -20 30 0 6 -8 10 -18 10 -20 0 -58 62
-48 79 8 13 -3 61 -15 61 -5 0 -10 -10 -11 -22z"/>
<path d="M625 630 c21 -22 41 -40 44 -40 3 0 -13 18 -34 40 -21 22 -41 40 -44
40 -3 0 13 -18 34 -40z"/>
<path d="M512 408 c-5 -7 -13 -40 -16 -73 -6 -54 -5 -61 14 -73 18 -11 21 -10
30 13 17 44 10 145 -10 145 -4 0 -12 -6 -18 -12z"/>
<path d="M732 380 c0 -19 2 -27 5 -17 2 9 2 25 0 35 -3 9 -5 1 -5 -18z"/>
<path d="M457 367 c-15 -22 -13 -77 3 -77 8 0 23 90 16 97 -2 2 -10 -7 -19
-20z"/>
</g>
</svg>
